<svg t="1648700464168" class="icon" viewBox="0 0 1024 1024" version="1.1" xmlns="http://www.w3.org/2000/svg" p-id="3803" width="200" height="200"><path d="M310.028199 477.657589h-142.398808A167.81304 167.81304 0 0 1 0 310.028199v-142.398808A167.81304 167.81304 0 0 1 167.629391 0h142.398808a167.81304 167.81304 0 0 1 167.62939 167.629391v142.398808a167.81304 167.81304 0 0 1-167.62939 167.62939zM167.629391 49.444031A118.312502 118.312502 0 0 0 49.444031 167.629391v142.398808a118.312502 118.312502 0 0 0 118.18536 118.185359h142.398808a118.312502 118.312502 0 0 0 118.185359-118.185359v-142.398808A118.312502 118.312502 0 0 0 310.028199 49.444031zM856.370609 477.657589H713.971801a167.81304 167.81304 0 0 1-167.62939-167.62939v-142.398808A167.81304 167.81304 0 0 1 713.971801 0h142.398808a167.81304 167.81304 0 0 1 167.629391 167.629391v142.398808A167.81304 167.81304 0 0 1 856.370609 477.657589zM713.971801 49.444031a118.312502 118.312502 0 0 0-118.185359 118.18536v142.398808a118.312502 118.312502 0 0 0 118.185359 118.185359h142.398808a118.312502 118.312502 0 0 0 118.18536-118.185359v-142.398808A118.312502 118.312502 0 0 0 856.370609 49.444031zM310.028199 1024h-142.398808A167.81304 167.81304 0 0 1 0 856.370609V713.971801a167.81304 167.81304 0 0 1 167.629391-167.62939h142.398808A167.81304 167.81304 0 0 1 477.657589 713.971801v142.398808a167.81304 167.81304 0 0 1-167.62939 167.629391z m-142.398808-428.213558A118.312502 118.312502 0 0 0 49.444031 713.971801v142.398808a118.312502 118.312502 0 0 0 118.18536 118.18536h142.398808a118.312502 118.312502 0 0 0 118.185359-118.18536V713.971801a118.312502 118.312502 0 0 0-118.185359-118.185359zM838.485997 1024H694.603868a148.43098 148.43098 0 0 1-148.261457-148.261457V694.603868a148.43098 148.43098 0 0 1 148.261457-148.261457h181.134675a148.43098 148.43098 0 0 1 148.261457 148.261457v155.395525a24.722015 24.722015 0 0 1-49.444031 0v-155.395525a98.888061 98.888061 0 0 0-98.817426-98.817426H694.603868a98.888061 98.888061 0 0 0-98.817426 98.817426v181.134675a98.888061 98.888061 0 0 0 98.817426 98.817426h143.882129a24.722015 24.722015 0 0 1 0 49.444031z" p-id="3804"></path></svg>