<svg t="1648700438612" class="icon" viewBox="0 0 1024 1024" version="1.1" xmlns="http://www.w3.org/2000/svg" p-id="3607" width="200" height="200"><path d="M511.970429 559.100186A279.550093 279.550093 0 0 1 314.302198 81.881862a279.550093 279.550093 0 1 1 395.361887 395.361887 277.719479 277.719479 0 0 1-197.693656 81.856437z m0-514.606083c-129.668529 0-235.05599 105.451024-235.05599 235.05599s105.451024 235.05599 235.05599 235.05599S747.013707 409.167772 747.013707 279.550093 641.588108 44.494103 511.970429 44.494103z" p-id="3608" fill="#d81e06"></path><path d="M957.699641 1023.94915a22.247052 22.247052 0 0 1-22.247052-22.247052c0-107.43419-43.922036-208.486654-123.655468-284.57157C731.758586 640.715084 625.290553 598.763501 511.970429 598.763501s-219.788156 41.951583-299.813979 118.354314C132.423018 793.202731 88.500982 894.267908 88.500982 1001.752948a22.247052 22.247052 0 0 1-44.494103 0 427.93157 427.93157 0 0 1 36.930105-174.582147 445.424109 445.424109 0 0 1 100.505823-142.241291 468.179665 468.179665 0 0 1 148.73743-95.662322 489.358858 489.358858 0 0 1 363.580385 0 468.179665 468.179665 0 0 1 148.73743 95.662322 445.424109 445.424109 0 0 1 100.505822 142.241291A427.93157 427.93157 0 0 1 979.946692 1001.752948a22.247052 22.247052 0 0 1-22.247051 22.196202z" p-id="3609" fill="#d81e06"></path></svg>