<svg t="1648700505469" class="icon" viewBox="0 0 1024 1024" version="1.1" xmlns="http://www.w3.org/2000/svg" p-id="3998" width="200" height="200"><path d="M520.194688 741.37853c-98.820111 0-177.096973-0.404793-186.812007-1.657122-32.573193-4.187078-47.499938-32.623792-51.181026-48.764916l-0.101198-0.468042L150.024064 48.069179l0.366844-2.871501A12.131143 12.131143 0 0 0 148.885584 44.274243H45.663348a22.137122 22.137122 0 0 1 0-44.274243h110.230216l2.808252 0.746337a57.252922 57.252922 0 0 1 18.177739 8.981347c11.941396 8.930747 18.304237 21.871476 17.861495 36.001284l130.621668 635.310093c0.505991 1.808919 4.161779 13.547918 13.687066 14.774948 21.782928 2.289611 388.348363 1.15113 629.427943-0.177097h0.126498a22.137122 22.137122 0 0 1 0.113848 44.274243c-39.606473 0.215046-275.461692 1.467375-448.523385 1.467375zM150.492106 44.274243z" p-id="3999"></path><path d="M286.426683 600.864731a22.137122 22.137122 0 0 1-3.301593-44.021247l585.68499-89.193626 80.439976-293.474985H198.725732a22.137122 22.137122 0 1 1 0-44.274243h779.606177a22.137122 22.137122 0 0 1 21.352835 27.993972L907.746115 493.227721a22.137122 22.137122 0 0 1-18.013292 16.027276l-599.941297 91.369388a22.352168 22.352168 0 0 1-3.364843 0.240346zM442.942458 1024a118.047783 118.047783 0 1 1 118.047783-118.047783 118.17428 118.17428 0 0 1-118.047783 118.047783z m0-191.808672a73.773539 73.773539 0 1 0 73.77354 73.773539 73.849438 73.849438 0 0 0-73.77354-73.773539zM842.47323 1024a118.047783 118.047783 0 1 1 118.047783-118.047783 118.17428 118.17428 0 0 1-118.047783 118.047783z m0-191.808672a73.773539 73.773539 0 1 0 73.77354 73.773539 73.849438 73.849438 0 0 0-73.77354-73.773539z" p-id="4000"></path></svg>