<svg t="1648700180236" class="icon" viewBox="0 0 1024 1024" version="1.1" xmlns="http://www.w3.org/2000/svg" p-id="3260" width="200" height="200"><path d="M982.800096 477.801387a21.358833 21.358833 0 0 1-15.140904-6.27913L557.936792 61.812097a65.043462 65.043462 0 0 0-91.873584 0L56.340808 471.534497a21.420033 21.420033 0 0 1-30.281807-30.294048L435.769161 31.530289a107.932489 107.932489 0 0 1 152.461678 0l409.71016 409.71016a21.420033 21.420033 0 0 1-15.140903 36.560938z" p-id="3261" fill="#d81e06"></path><path d="M765.735596 1024H270.186182C181.348123 1024 109.132011 951.759407 109.132011 862.982548V375.536027a21.420033 21.420033 0 1 1 42.840066 0v487.446521a118.312025 118.312025 0 0 0 118.177385 118.177385h495.586134A118.312025 118.312025 0 0 0 883.925221 862.982548V383.614439a21.420033 21.420033 0 0 1 42.840067 0v479.368109c0 88.776859-72.216113 161.017452-161.029692 161.017452z" p-id="3262" fill="#d81e06"></path><path d="M687.803395 1020.119914a21.420033 21.420033 0 0 1-21.420034-21.420034V681.769065c0-23.733397-22.472675-43.048147-50.098398-43.048147H413.663686c-27.625723 0-50.098398 19.31475-50.098398 43.048147v316.930815a21.420033 21.420033 0 0 1-42.840067 0V681.769065c0-47.356634 41.689505-85.888214 92.938465-85.888214h202.621277c51.24896 0 92.938465 38.53158 92.938465 85.888214v316.930815a21.420033 21.420033 0 0 1-21.420033 21.420034z" p-id="3263" fill="#d81e06"></path></svg>